<?xml version="1.0" standalone="no"?>
<!DOCTYPE svg PUBLIC "-//W3C//DTD SVG 20010904//EN"
 "http://www.w3.org/TR/2001/REC-SVG-20010904/DTD/svg10.dtd">
<svg version="1.0" xmlns="http://www.w3.org/2000/svg"
 width="317.000000pt" height="317.000000pt" viewBox="0 0 317.000000 317.000000"
 preserveAspectRatio="xMidYMid meet">
<metadata>
Created by potrace 1.16, written by Peter Selinger 2001-2019
</metadata>
<g transform="translate(0.000000,317.000000) scale(0.100000,-0.100000)"
fill="#000000" stroke="none">
<path d="M1287 2423 c-3 -5 -114 -206 -247 -448 -134 -242 -269 -487 -301
-545 -197 -358 -239 -436 -239 -442 0 -5 67 -8 148 -8 l148 0 264 483 c330
603 322 589 326 584 4 -4 61 -330 84 -477 5 -30 27 -163 49 -295 23 -132 41
-263 41 -292 l0 -52 43 -5 c23 -3 206 -8 407 -11 201 -3 472 -8 603 -12 l237
-6 0 61 c0 58 -1 61 -27 66 -16 3 -236 8 -491 12 -254 3 -465 10 -467 15 -3 4
-28 133 -55 286 -106 588 -121 674 -158 878 l-38 210 -161 3 c-89 1 -164 -1
-166 -5z"/>
</g>
</svg>
