<?xml version="1.0" standalone="no"?>
<!DOCTYPE svg PUBLIC "-//W3C//DTD SVG 20010904//EN"
 "http://www.w3.org/TR/2001/REC-SVG-20010904/DTD/svg10.dtd">
<svg version="1.0" xmlns="http://www.w3.org/2000/svg"
 width="717.000000pt" height="463.000000pt" viewBox="0 0 717.000000 463.000000"
 preserveAspectRatio="xMidYMid meet">
<metadata>
Created by potrace 1.16, written by Peter Selinger 2001-2019
</metadata>
<g transform="translate(0.000000,463.000000) scale(0.100000,-0.100000)"
fill="#000000" stroke="none">
<path d="M1668 3964 c-69 -131 -142 -280 -162 -330 -65 -165 -109 -362 -122
-552 l-7 -102 207 0 206 0 0 35 c0 24 5 35 15 35 8 0 15 5 15 10 0 6 -7 10
-15 10 -11 0 -15 12 -15 45 0 33 4 45 15 45 8 0 15 7 15 15 0 8 -7 15 -15 15
-11 0 -15 11 -15 40 0 29 4 40 15 40 8 0 15 7 15 15 0 8 -7 15 -15 15 -11 0
-15 12 -15 45 0 33 4 45 15 45 8 0 15 7 15 15 0 8 -7 15 -15 15 -11 0 -15 11
-15 40 0 29 4 40 15 40 8 0 15 7 15 15 0 8 -7 15 -15 15 -11 0 -15 12 -15 45
0 33 4 45 15 45 8 0 15 5 15 10 0 6 -7 10 -15 10 -11 0 -15 12 -15 45 0 33 4
45 15 45 8 0 15 7 15 15 0 8 -7 15 -15 15 -11 0 -15 12 -15 45 0 33 4 45 15
45 8 0 15 5 15 10 0 6 -7 10 -15 10 -12 0 -15 13 -15 61 l0 61 55 -4 c30 -1
55 -1 55 2 -1 3 -25 52 -54 109 l-53 104 -125 -239z"/>
<path d="M3240 3093 c-19 -53 -36 -101 -38 -105 -2 -4 30 -8 72 -8 42 0 76 4
76 9 0 9 -68 193 -73 198 -2 1 -18 -41 -37 -94z"/>
<path d="M1380 2640 l0 -280 98 0 97 0 19 58 c27 83 121 289 141 312 10 11 26
20 37 20 15 0 18 8 18 50 0 43 -3 50 -20 50 -16 0 -20 7 -20 35 l0 35 -185 0
-185 0 0 -280z"/>
<path d="M1918 2768 c-3 -139 -1 -158 19 -208 l22 -55 1 208 c0 199 -1 207
-19 207 -19 0 -20 -9 -23 -152z"/>
<path d="M2002 2643 c3 -255 4 -278 21 -281 16 -3 17 15 17 277 0 275 0 281
-20 281 -20 0 -20 -5 -18 -277z"/>
<path d="M2080 2640 c0 -273 0 -280 20 -280 20 0 20 7 20 280 0 273 0 280 -20
280 -20 0 -20 -7 -20 -280z"/>
<path d="M2160 2640 c0 -273 0 -280 20 -280 18 0 20 7 20 80 l0 80 50 0 c42 0
50 3 50 19 0 10 7 35 15 54 8 20 15 39 15 42 0 3 -29 5 -65 5 l-65 0 0 140 c0
133 -1 140 -20 140 -20 0 -20 -7 -20 -280z"/>
<path d="M5885 2684 c-38 -25 -71 -49 -73 -54 -3 -8 85 -156 109 -183 8 -10
169 80 169 93 0 16 -115 190 -125 190 -5 0 -41 -21 -80 -46z"/>
<path d="M2555 2604 c8 -20 15 -47 15 -60 l0 -24 250 0 250 0 0 60 0 60 -265
0 -265 0 15 -36z"/>
<path d="M3490 2580 l0 -60 800 0 800 0 0 -155 0 -155 25 0 c24 0 25 -2 25
-70 0 -68 -1 -70 -25 -70 l-25 0 0 -162 0 -162 60 59 60 59 0 346 c0 327 -1
347 -20 378 -11 18 -32 37 -46 42 -16 6 -335 10 -840 10 l-814 0 0 -60z"/>
<path d="M1742 2563 c-23 -21 -66 -124 -86 -211 -23 -102 -12 -99 120 32 l105
104 -20 40 c-28 55 -78 70 -119 35z"/>
<path d="M1380 2175 l0 -135 75 0 75 0 -6 -27 c-4 -16 -10 -35 -14 -43 -4 -8
-13 -39 -20 -67 l-12 -53 -48 -6 -49 -6 -3 -182 -3 -181 -43 -97 c-50 -112
-144 -263 -202 -326 -22 -24 -37 -49 -33 -55 3 -7 3 -9 -2 -5 -9 9 -35 -16
-35 -33 0 -7 -3 -9 -7 -6 -12 13 -135 -169 -189 -278 -45 -93 -94 -221 -94
-245 0 -4 53 -6 117 -6 l117 0 31 35 c48 55 125 76 189 52 17 -7 26 -7 30 2 3
8 5 7 5 -3 1 -8 17 -31 37 -50 34 -33 38 -34 123 -37 l87 -3 22 46 22 45 0
841 c-1 462 1 842 3 844 2 2 109 6 238 10 129 3 236 8 238 10 2 2 -104 4 -237
4 l-242 0 7 45 6 45 -92 0 -91 0 0 -135z m-52 -1444 c65 -35 50 -151 -21 -165
-46 -9 -53 -8 -87 20 -28 24 -31 32 -29 72 3 44 33 94 52 85 4 -2 7 0 7 6 0
11 43 1 78 -18z"/>
<path d="M2040 1990 c-2 -41 -4 -388 -6 -770 l-3 -695 26 -57 c14 -31 30 -55
35 -51 6 3 45 6 87 7 76 2 79 3 110 38 70 80 203 77 262 -6 l24 -33 121 1 122
1 -14 45 c-8 25 -17 55 -20 67 -3 13 -11 20 -17 16 -5 -3 -7 -1 -4 4 8 13 -12
75 -23 68 -4 -2 -8 5 -8 18 0 28 -76 159 -87 149 -5 -4 -5 -1 -1 5 4 7 -5 29
-21 50 -60 83 -105 133 -114 127 -5 -3 -9 2 -9 10 0 9 -16 32 -35 52 -19 19
-35 40 -35 44 0 13 -42 40 -52 34 -4 -3 -8 0 -8 6 0 7 6 10 14 7 13 -5 -11 39
-42 78 -20 26 -93 178 -117 245 -21 59 -27 94 -27 163 -1 57 -4 84 -10 75 -6
-9 -8 -3 -4 17 4 19 3 25 -2 17 -7 -11 -12 -10 -26 3 -9 9 -16 22 -15 28 0 9
2 8 6 0 2 -7 12 -13 21 -13 12 0 13 3 4 12 -7 7 -12 23 -12 37 0 19 -3 22 -12
13 -20 -20 -32 -13 -13 8 10 11 15 23 11 27 -4 4 -11 1 -16 -6 -5 -10 -21 26
-48 110 l-40 124 -2 -75z m381 -1308 c1 -75 -1 -115 -7 -121 -2 -2 -18 -4 -36
-3 -18 0 -36 -5 -40 -11 -6 -9 -8 -9 -8 1 0 9 -12 13 -37 12 -21 -1 -57 -2
-80 -1 l-43 1 0 94 0 95 38 3 c20 2 76 2 125 0 l87 -3 1 -67z"/>
<path d="M5980 1835 c0 -78 2 -88 25 -110 60 -61 125 -11 125 96 l0 52 69 -66
c38 -37 78 -67 89 -67 10 0 31 9 46 21 37 29 36 77 -5 124 l-31 35 -159 0
-159 0 0 -85z"/>
<path d="M4767 1222 c-20 -22 -22 -75 -4 -90 6 -5 35 -12 62 -15 62 -6 82 -11
92 -22 4 -4 2 -5 -4 -1 -7 4 -13 3 -13 -1 0 -5 6 -16 13 -23 10 -13 10 -13 -2
-2 -21 17 -30 15 -28 -6 1 -16 11 -19 70 -20 44 -2 75 2 85 10 12 10 14 10 8
1 -4 -8 -1 -13 8 -13 9 0 16 6 16 13 0 8 3 9 8 1 10 -16 95 -18 86 -1 -6 8 -3
8 9 -2 10 -8 34 -12 61 -9 44 3 45 2 48 -27 3 -33 21 -40 26 -11 3 11 0 16 -7
12 -7 -5 -9 -1 -5 8 3 9 16 16 28 16 17 0 18 2 6 10 -9 6 -10 10 -3 10 6 0 14
-4 17 -9 3 -5 38 -8 78 -8 58 1 76 5 86 19 7 9 19 15 27 12 9 -4 15 0 15 9 0
9 4 19 10 22 6 4 7 -2 1 -17 -5 -13 -16 -22 -24 -22 -9 1 -18 -5 -21 -12 -4
-11 8 -14 59 -14 53 0 63 -3 59 -15 -4 -8 -1 -15 5 -15 6 0 11 7 11 15 0 11
11 15 40 15 l40 0 0 40 0 40 65 0 65 0 0 -94 c0 -91 -1 -94 -24 -100 -42 -10
-44 -61 -2 -71 11 -3 108 -4 215 -3 172 3 195 5 205 21 14 22 -3 51 -33 55
-21 3 -22 8 -19 95 l3 92 80 3 c67 2 83 6 98 23 22 28 22 54 -3 79 -20 20 -33
20 -808 20 -752 0 -790 -1 -805 -18z"/>
<path d="M5041 864 c-51 -22 -77 -103 -50 -157 20 -39 51 -57 102 -57 40 0 53
5 77 28 93 93 -7 237 -129 186z"/>
<path d="M5633 653 c0 -27 5 -51 11 -55 8 -5 7 -8 -1 -8 -7 0 -13 -9 -13 -20
0 -11 6 -20 13 -20 9 0 9 -2 -1 -9 -8 -4 -13 -11 -13 -15 1 -3 1 -23 1 -44 0
-37 -1 -38 -31 -34 -20 3 -34 0 -40 -9 -6 -10 -9 -11 -9 -1 0 8 -19 12 -60 12
-41 0 -60 -4 -60 -12 0 -9 -3 -9 -8 -2 -4 5 -29 11 -57 13 -27 2 -52 4 -54 6
-2 3 -3 16 -3 31 0 15 -7 38 -15 53 -13 25 -13 24 -11 -26 1 -29 -1 -55 -4
-59 -4 -3 -95 -5 -203 -4 l-196 1 3 -38 c3 -37 4 -38 47 -41 28 -2 47 2 52 10
5 7 9 8 9 2 0 -15 480 -17 480 -1 0 8 3 8 8 2 11 -15 162 -17 181 -2 12 9 13
9 7 -1 -5 -9 -1 -11 16 -8 13 3 29 5 36 5 7 1 12 15 12 36 0 33 -2 35 -35 35
-32 0 -35 2 -35 30 0 17 -5 30 -11 30 -8 0 -8 5 1 15 9 11 10 31 5 72 -5 32
-7 68 -6 81 1 12 -2 22 -7 22 -6 0 -10 -21 -9 -47z"/>
<path d="M5492 674 c-67 -47 -35 -144 47 -144 24 0 71 44 71 67 0 39 -14 64
-41 78 -36 19 -49 19 -77 -1z"/>
<path d="M5867 613 c-4 -3 -7 -60 -7 -125 l0 -118 170 0 170 0 0 125 0 125
-163 0 c-90 0 -167 -3 -170 -7z"/>
<path d="M1110 418 c-32 -35 -30 -73 6 -106 31 -28 54 -28 88 -1 22 17 27 28
24 58 -2 22 -8 35 -15 34 -7 -2 -13 4 -13 12 0 18 -16 20 -23 3 -3 -8 -6 -6
-6 5 -1 9 -4 17 -7 17 -4 0 -13 -8 -20 -17 -13 -17 -14 -17 -8 0 8 23 -1 22
-26 -5z"/>
<path d="M2360 418 c-25 -27 -26 -79 -2 -100 43 -38 104 -27 118 21 10 35 7
48 -18 77 -27 30 -70 32 -98 2z"/>
<path d="M2146 275 l14 -35 -56 0 c-51 0 -55 -2 -52 -22 3 -20 9 -22 96 -25
l92 -4 0 61 0 60 -54 0 -55 0 15 -35z"/>
<path d="M2590 250 l0 -60 240 0 240 0 0 60 0 60 -240 0 -240 0 0 -60z"/>
<path d="M1432 217 c3 -19 10 -22 53 -24 35 -1 54 4 63 15 11 14 12 14 12 -1
0 -14 10 -17 58 -17 32 0 63 5 70 12 7 7 12 8 12 2 0 -6 65 -10 170 -10 l170
0 0 24 c0 22 -2 23 -17 11 -11 -9 -14 -10 -9 -2 5 10 -26 12 -139 12 -103 -1
-145 -4 -145 -12 0 -9 -3 -8 -8 0 -6 9 -48 12 -151 12 -140 -1 -142 -1 -139
-22z"/>
</g>
</svg>
